<svg width="120" height="100" viewBox="0 0 120 100" fill="none" xmlns="http://www.w3.org/2000/svg">
<path fill-rule="evenodd" clip-rule="evenodd" d="M45.9503 46.0225C42.0011 51.4096 34.6738 57.9019 32.9336 62.6617C29.6751 71.5734 37.9155 79.4664 46.1948 78.0048C54.8667 76.4745 54.929 65.9446 65.6403 67.3772C69.6098 67.9082 72.6321 70.2846 74.3165 73.241C75.2907 74.951 75.8914 77.0266 75.8836 79.3767C75.8781 81.0634 74.5502 84.8027 74.5576 84.8378C75.3084 84.254 75.7941 83.5137 76.336 82.91C85.174 73.0623 94.3371 61.6542 103.057 51.568C105.482 48.7639 107.682 46.1244 110.086 43.3012C112.426 40.5534 114.855 38.1804 116.734 34.4436C124.518 18.9647 112.596 -0.978898 93.8009 0.510345C83.2762 1.34352 78.6038 7.77312 74.3542 12.6754L53.1507 37.6388C50.8002 40.3884 48.4549 43.48 45.9503 46.0225Z" fill="#55B02F"/>
<path fill-rule="evenodd" clip-rule="evenodd" d="M72.6745 87.625C72.6783 87.589 75.099 84.4448 75.6262 82.8426C76.3615 80.6107 76.4324 78.4506 76.0352 76.5228C75.3487 73.1904 73.2103 69.9955 69.6003 68.2619C59.8585 63.5842 56.5394 73.5774 47.8198 72.3491C39.4946 71.1753 34.1022 61.119 39.9587 53.6542L54.2045 36.8936C54.7611 37.799 53.2757 36.328 54.2045 36.8936C53.1269 35.1409 52.2015 33.6019 51.1788 31.9145C47.4641 25.786 43.183 16.9496 37.2948 12.8546C33.4169 10.1587 28.7635 8.61319 23.5796 8.62189C7.0524 8.64877 -6.9143 27.3757 4.65474 45.9227L30.4679 87.7138C35.0871 95.1928 51.1278 105.821 67.5003 93.373L72.6745 87.625Z" fill="#0FA0D7"/>
</svg>
