<svg width="24" height="21" viewBox="0 0 24 21" fill="none" xmlns="http://www.w3.org/2000/svg">
<path fill-rule="evenodd" clip-rule="evenodd" d="M9.21611 9.81006C8.42098 10.8947 6.94573 12.2018 6.59535 13.1601C5.9393 14.9544 7.59841 16.5435 9.26532 16.2493C11.0113 15.9411 11.0238 13.8211 13.1804 14.1095C13.9796 14.2164 14.5881 14.6949 14.9273 15.2901C15.1234 15.6344 15.2443 16.0523 15.2428 16.5255C15.2417 16.8651 14.9743 17.6179 14.9758 17.625C15.127 17.5074 15.2248 17.3584 15.3339 17.2369C17.1133 15.2542 18.9581 12.9573 20.7139 10.9266C21.202 10.362 21.6449 9.83056 22.129 9.26214C22.6001 8.70891 23.0891 8.23115 23.4674 7.47879C25.0346 4.36232 22.6343 0.346943 18.8502 0.646782C16.7312 0.814531 15.7904 2.10904 14.9349 3.09605L10.6658 8.12211C10.1926 8.67571 9.72037 9.29814 9.21611 9.81006Z" fill="#55B02F"/>
<path fill-rule="evenodd" clip-rule="evenodd" d="M14.5967 18.186C14.5975 18.1787 15.0848 17.5457 15.191 17.2231C15.339 16.7738 15.3533 16.3388 15.2733 15.9507C15.1351 15.2798 14.7046 14.6365 13.9777 14.2875C12.0164 13.3457 11.3481 15.3577 9.59253 15.1104C7.91637 14.8741 6.83066 12.8494 8.00979 11.3464L10.878 7.9719C10.9901 8.15419 10.691 7.858 10.878 7.9719C10.661 7.619 10.4747 7.30915 10.2688 6.96941C9.52091 5.73553 8.65896 3.95644 7.47346 3.13196C6.6927 2.58918 5.7558 2.27801 4.71208 2.27976C1.38455 2.28517 -1.42746 6.05559 0.901814 9.78978L6.09895 18.2039C7.02896 19.7097 10.2586 21.8494 13.5549 19.3433L14.5967 18.186Z" fill="#056327"/>
</svg>
