<svg width="617" height="213" viewBox="0 0 617 213" fill="none" xmlns="http://www.w3.org/2000/svg">
<path d="M40.003 171.095C31.7413 171.095 24.1196 169.582 17.1379 166.556C10.2726 163.415 4.62906 158.993 0.20732 153.291L15.9161 134.441C19.2906 138.862 22.8397 142.237 26.5632 144.564C30.2868 146.775 34.3013 147.88 38.6067 147.88C50.1265 147.88 55.8864 141.131 55.8864 127.633V69.5108H12.9489V46.8203H83.9877V126.063C83.9877 141.19 80.2641 152.477 72.817 159.924C65.3698 167.371 54.4319 171.095 40.003 171.095Z" fill="#00309E"/>
<path d="M147.575 170.396C136.869 170.396 127.444 168.302 119.299 164.113C111.27 159.924 105.044 154.222 100.623 147.008C96.2009 139.677 93.99 131.357 93.99 122.048C93.99 112.623 96.1427 104.303 100.448 97.0885C104.87 89.7577 110.862 84.056 118.426 79.9833C125.989 75.7943 134.542 73.6998 144.084 73.6998C153.276 73.6998 161.538 75.678 168.869 79.6342C176.316 83.4742 182.192 89.0595 186.498 96.3903C190.803 103.605 192.956 112.274 192.956 122.397C192.956 123.444 192.897 124.666 192.781 126.063C192.665 127.343 192.548 128.564 192.432 129.728H116.157V113.845H178.119L167.647 118.557C167.647 113.67 166.658 109.423 164.68 105.816C162.702 102.208 159.967 99.4157 156.476 97.4376C152.985 95.3431 148.913 94.2958 144.258 94.2958C139.604 94.2958 135.473 95.3431 131.866 97.4376C128.375 99.4157 125.64 102.267 123.662 105.99C121.684 109.597 120.695 113.903 120.695 118.906V123.095C120.695 128.215 121.8 132.753 124.011 136.71C126.339 140.55 129.539 143.517 133.611 145.611C137.8 147.589 142.687 148.579 148.273 148.579C153.276 148.579 157.64 147.822 161.363 146.309C165.203 144.797 168.694 142.528 171.836 139.502L186.323 155.211C182.018 160.098 176.607 163.88 170.091 166.556C163.574 169.116 156.069 170.396 147.575 170.396Z" fill="#00309E"/>
<path d="M250.833 170.396C240.826 170.396 231.924 168.302 224.128 164.113C216.448 159.924 210.339 154.222 205.801 147.008C201.379 139.677 199.169 131.357 199.169 122.048C199.169 112.623 201.379 104.303 205.801 97.0885C210.339 89.7577 216.448 84.056 224.128 79.9833C231.924 75.7943 240.826 73.6998 250.833 73.6998C260.724 73.6998 269.567 75.7943 277.364 79.9833C285.16 84.056 291.269 89.6995 295.691 96.914C300.112 104.128 302.323 112.506 302.323 122.048C302.323 131.357 300.112 139.677 295.691 147.008C291.269 154.222 285.16 159.924 277.364 164.113C269.567 168.302 260.724 170.396 250.833 170.396ZM250.833 148.055C255.371 148.055 259.444 147.008 263.051 144.913C266.658 142.819 269.509 139.851 271.604 136.011C273.698 132.055 274.746 127.401 274.746 122.048C274.746 116.579 273.698 111.925 271.604 108.085C269.509 104.245 266.658 101.278 263.051 99.183C259.444 97.0885 255.371 96.0412 250.833 96.0412C246.295 96.0412 242.222 97.0885 238.615 99.183C235.008 101.278 232.099 104.245 229.888 108.085C227.794 111.925 226.746 116.579 226.746 122.048C226.746 127.401 227.794 132.055 229.888 136.011C232.099 139.851 235.008 142.819 238.615 144.913C242.222 147.008 246.295 148.055 250.833 148.055Z" fill="#00309E"/>
<path d="M430.528 169V150.673L428.782 146.659V113.845C428.782 108.026 426.979 103.488 423.372 100.23C419.881 96.9721 414.47 95.3431 407.139 95.3431C402.136 95.3431 397.19 96.1576 392.303 97.7867C387.532 99.2994 383.46 101.394 380.085 104.07L370.311 85.0451C375.431 81.4379 381.598 78.6452 388.812 76.667C396.027 74.6889 403.357 73.6998 410.805 73.6998C425.117 73.6998 436.23 77.0743 444.142 83.8233C452.055 90.5722 456.011 101.103 456.011 115.415V169H430.528ZM401.903 170.396C394.572 170.396 388.289 169.175 383.052 166.731C377.816 164.171 373.802 160.738 371.009 156.433C368.216 152.128 366.82 147.299 366.82 141.946C366.82 136.361 368.158 131.473 370.834 127.284C373.627 123.095 377.991 119.837 383.925 117.51C389.859 115.066 397.598 113.845 407.139 113.845H432.099V129.728H410.106C403.707 129.728 399.285 130.775 396.841 132.87C394.514 134.964 393.35 137.582 393.35 140.724C393.35 144.215 394.689 147.008 397.365 149.102C400.158 151.08 403.939 152.069 408.71 152.069C413.248 152.069 417.321 151.022 420.928 148.928C424.535 146.717 427.153 143.517 428.782 139.328L432.971 151.895C430.993 157.946 427.386 162.542 422.15 165.684C416.914 168.825 410.165 170.396 401.903 170.396Z" fill="#00309E"/>
<path d="M527.882 73.6998C535.33 73.6998 541.962 75.2125 547.78 78.2379C553.715 81.1469 558.369 85.6851 561.744 91.8522C565.118 97.903 566.805 105.699 566.805 115.241V169H539.577V119.43C539.577 111.866 537.89 106.281 534.515 102.674C531.257 99.0666 526.602 97.263 520.552 97.263C516.246 97.263 512.348 98.1939 508.857 100.056C505.483 101.801 502.807 104.536 500.828 108.259C498.967 111.983 498.036 116.754 498.036 122.572V169H470.807V75.0961H496.814V101.103L491.927 93.2486C495.301 86.965 500.13 82.136 506.414 78.7615C512.697 75.387 519.853 73.6998 527.882 73.6998Z" fill="#00309E"/>
<path d="M575.892 169V75.0961H603.121V169H575.892ZM589.507 62.0055C584.503 62.0055 580.43 60.5509 577.289 57.6419C574.147 54.7328 572.576 51.1256 572.576 46.8203C572.576 42.5149 574.147 38.9077 577.289 35.9986C580.43 33.0896 584.503 31.6351 589.507 31.6351C594.51 31.6351 598.583 33.0314 601.725 35.8241C604.866 38.5004 606.437 41.9913 606.437 46.2966C606.437 50.8347 604.866 54.6165 601.725 57.6419C598.699 60.5509 594.627 62.0055 589.507 62.0055Z" fill="#00309E"/>
<path d="M151.505 63.8985V34.1516H162.639C165.16 34.1516 167.327 34.5624 169.141 35.384C170.954 36.1772 172.342 37.3388 173.305 38.8686C174.297 40.3701 174.792 42.1974 174.792 44.3505C174.792 46.447 174.297 48.2601 173.305 49.79C172.342 51.2915 170.954 52.453 169.141 53.2746C167.327 54.0962 165.16 54.507 162.639 54.507H153.247L154.65 53.0196V63.8985H151.505ZM154.65 53.2746L153.247 51.7448H162.554C165.528 51.7448 167.781 51.1073 169.311 49.8325C170.869 48.5293 171.648 46.702 171.648 44.3505C171.648 41.9708 170.869 40.1293 169.311 38.8261C167.781 37.5229 165.528 36.8713 162.554 36.8713H153.247L154.65 35.384V53.2746ZM181.592 63.8985V34.1516H192.726C195.247 34.1516 197.415 34.5624 199.228 35.384C201.041 36.1772 202.429 37.3388 203.392 38.8686C204.384 40.3701 204.88 42.1974 204.88 44.3505C204.88 46.447 204.384 48.2601 203.392 49.79C202.429 51.2915 201.041 52.453 199.228 53.2746C197.415 54.0678 195.247 54.4645 192.726 54.4645H183.334L184.737 53.0196V63.8985H181.592ZM201.905 63.8985L194.256 53.1046H197.655L205.347 63.8985H201.905ZM184.737 53.2746L183.334 51.7873H192.641C195.616 51.7873 197.868 51.1357 199.398 49.8325C200.956 48.5293 201.735 46.702 201.735 44.3505C201.735 41.9708 200.956 40.1293 199.398 38.8261C197.868 37.5229 195.616 36.8713 192.641 36.8713H183.334L184.737 35.384V53.2746ZM225.305 64.1534C223.067 64.1534 220.985 63.7851 219.058 63.0486C217.16 62.2836 215.503 61.2213 214.087 59.8614C212.698 58.4732 211.608 56.8725 210.814 55.0594C210.049 53.2179 209.667 51.2065 209.667 49.025C209.667 46.8436 210.049 44.8463 210.814 43.0332C211.608 41.1917 212.698 39.5911 214.087 38.2312C215.503 36.843 217.16 35.7806 219.058 35.044C220.957 34.2791 223.039 33.8967 225.305 33.8967C227.543 33.8967 229.612 34.2791 231.51 35.044C233.408 35.7806 235.051 36.8288 236.439 38.1887C237.856 39.5486 238.946 41.1492 239.711 42.9907C240.505 44.8322 240.901 46.8436 240.901 49.025C240.901 51.2065 240.505 53.2179 239.711 55.0594C238.946 56.9009 237.856 58.5015 236.439 59.8614C235.051 61.2213 233.408 62.2836 231.51 63.0486C229.612 63.7851 227.543 64.1534 225.305 64.1534ZM225.305 61.3487C227.09 61.3487 228.733 61.0513 230.235 60.4563C231.765 59.8331 233.082 58.969 234.187 57.8641C235.32 56.7309 236.198 55.4277 236.822 53.9545C237.445 52.453 237.756 50.8099 237.756 49.025C237.756 47.2402 237.445 45.6112 236.822 44.1381C236.198 42.6366 235.32 41.3334 234.187 40.2285C233.082 39.0953 231.765 38.2312 230.235 37.6363C228.733 37.013 227.09 36.7014 225.305 36.7014C223.521 36.7014 221.863 37.013 220.333 37.6363C218.804 38.2312 217.472 39.0953 216.339 40.2285C215.234 41.3334 214.356 42.6366 213.704 44.1381C213.081 45.6112 212.769 47.2402 212.769 49.025C212.769 50.7815 213.081 52.4105 213.704 53.912C214.356 55.4135 215.234 56.7309 216.339 57.8641C217.472 58.969 218.804 59.8331 220.333 60.4563C221.863 61.0513 223.521 61.3487 225.305 61.3487ZM250.754 48.5576H266.478V51.2773H250.754V48.5576ZM251.094 63.8985H247.95V34.1516H268.348V36.8713H251.094V63.8985ZM277.646 47.4527H293.369V50.1299H277.646V47.4527ZM277.986 61.1788H295.877V63.8985H274.841V34.1516H295.239V36.8713H277.986V61.1788ZM311.47 64.1534C309.26 64.1534 307.136 63.7993 305.096 63.0911C303.084 62.3545 301.526 61.4196 300.421 60.2864L301.654 57.8641C302.702 58.884 304.104 59.7481 305.861 60.4563C307.646 61.1363 309.515 61.4762 311.47 61.4762C313.34 61.4762 314.856 61.2496 316.017 60.7963C317.207 60.3147 318.071 59.6773 318.609 58.884C319.176 58.0908 319.459 57.2125 319.459 56.2493C319.459 55.0877 319.119 54.1528 318.439 53.4446C317.788 52.7363 316.924 52.1839 315.847 51.7873C314.771 51.3623 313.581 50.994 312.278 50.6824C310.974 50.3707 309.671 50.0449 308.368 49.705C307.065 49.3367 305.861 48.8551 304.756 48.2601C303.679 47.6652 302.801 46.8861 302.121 45.9229C301.47 44.9313 301.144 43.6423 301.144 42.0558C301.144 40.5826 301.526 39.2369 302.291 38.0187C303.084 36.7722 304.288 35.7806 305.903 35.044C307.518 34.2791 309.586 33.8967 312.108 33.8967C313.779 33.8967 315.436 34.1375 317.08 34.6191C318.723 35.0724 320.139 35.7098 321.329 36.5314L320.267 39.0386C318.992 38.1887 317.632 37.5654 316.187 37.1688C314.771 36.7722 313.397 36.5739 312.065 36.5739C310.28 36.5739 308.807 36.8147 307.646 37.2963C306.484 37.7779 305.62 38.4295 305.053 39.2511C304.515 40.0443 304.246 40.9509 304.246 41.9708C304.246 43.1323 304.572 44.0672 305.223 44.7755C305.903 45.4838 306.782 46.0362 307.858 46.4328C308.963 46.8294 310.167 47.1836 311.47 47.4952C312.773 47.8068 314.062 48.1468 315.337 48.5151C316.64 48.8834 317.83 49.365 318.907 49.96C320.012 50.5266 320.89 51.2915 321.542 52.2547C322.222 53.2179 322.562 54.4786 322.562 56.0368C322.562 57.4817 322.165 58.8273 321.372 60.0739C320.578 61.2921 319.36 62.2836 317.717 63.0486C316.102 63.7851 314.02 64.1534 311.47 64.1534ZM337.615 64.1534C335.405 64.1534 333.28 63.7993 331.241 63.0911C329.229 62.3545 327.671 61.4196 326.566 60.2864L327.798 57.8641C328.847 58.884 330.249 59.7481 332.005 60.4563C333.79 61.1363 335.66 61.4762 337.615 61.4762C339.485 61.4762 341 61.2496 342.162 60.7963C343.352 60.3147 344.216 59.6773 344.754 58.884C345.321 58.0908 345.604 57.2125 345.604 56.2493C345.604 55.0877 345.264 54.1528 344.584 53.4446C343.933 52.7363 343.068 52.1839 341.992 51.7873C340.915 51.3623 339.726 50.994 338.422 50.6824C337.119 50.3707 335.816 50.0449 334.513 49.705C333.21 49.3367 332.005 48.8551 330.901 48.2601C329.824 47.6652 328.946 46.8861 328.266 45.9229C327.614 44.9313 327.288 43.6423 327.288 42.0558C327.288 40.5826 327.671 39.2369 328.436 38.0187C329.229 36.7722 330.433 35.7806 332.048 35.044C333.663 34.2791 335.731 33.8967 338.252 33.8967C339.924 33.8967 341.581 34.1375 343.224 34.6191C344.867 35.0724 346.284 35.7098 347.474 36.5314L346.411 39.0386C345.137 38.1887 343.777 37.5654 342.332 37.1688C340.915 36.7722 339.541 36.5739 338.21 36.5739C336.425 36.5739 334.952 36.8147 333.79 37.2963C332.629 37.7779 331.765 38.4295 331.198 39.2511C330.66 40.0443 330.391 40.9509 330.391 41.9708C330.391 43.1323 330.716 44.0672 331.368 44.7755C332.048 45.4838 332.926 46.0362 334.003 46.4328C335.108 46.8294 336.312 47.1836 337.615 47.4952C338.918 47.8068 340.207 48.1468 341.482 48.5151C342.785 48.8834 343.975 49.365 345.052 49.96C346.156 50.5266 347.035 51.2915 347.686 52.2547C348.366 53.2179 348.706 54.4786 348.706 56.0368C348.706 57.4817 348.31 58.8273 347.516 60.0739C346.723 61.2921 345.505 62.2836 343.862 63.0486C342.247 63.7851 340.165 64.1534 337.615 64.1534ZM368.562 64.1534C366.323 64.1534 364.241 63.7851 362.315 63.0486C360.417 62.2836 358.759 61.2213 357.343 59.8614C355.955 58.4732 354.864 56.8725 354.071 55.0594C353.306 53.2179 352.923 51.2065 352.923 49.025C352.923 46.8436 353.306 44.8463 354.071 43.0332C354.864 41.1917 355.955 39.5911 357.343 38.2312C358.759 36.843 360.417 35.7806 362.315 35.044C364.213 34.2791 366.295 33.8967 368.562 33.8967C370.8 33.8967 372.868 34.2791 374.766 35.044C376.664 35.7806 378.307 36.8288 379.695 38.1887C381.112 39.5486 382.203 41.1492 382.968 42.9907C383.761 44.8322 384.157 46.8436 384.157 49.025C384.157 51.2065 383.761 53.2179 382.968 55.0594C382.203 56.9009 381.112 58.5015 379.695 59.8614C378.307 61.2213 376.664 62.2836 374.766 63.0486C372.868 63.7851 370.8 64.1534 368.562 64.1534ZM368.562 61.3487C370.346 61.3487 371.99 61.0513 373.491 60.4563C375.021 59.8331 376.338 58.969 377.443 57.8641C378.576 56.7309 379.455 55.4277 380.078 53.9545C380.701 52.453 381.013 50.8099 381.013 49.025C381.013 47.2402 380.701 45.6112 380.078 44.1381C379.455 42.6366 378.576 41.3334 377.443 40.2285C376.338 39.0953 375.021 38.2312 373.491 37.6363C371.99 37.013 370.346 36.7014 368.562 36.7014C366.777 36.7014 365.119 37.013 363.59 37.6363C362.06 38.2312 360.728 39.0953 359.595 40.2285C358.49 41.3334 357.612 42.6366 356.96 44.1381C356.337 45.6112 356.025 47.2402 356.025 49.025C356.025 50.7815 356.337 52.4105 356.96 53.912C357.612 55.4135 358.49 56.7309 359.595 57.8641C360.728 58.969 362.06 59.8331 363.59 60.4563C365.119 61.0513 366.777 61.3487 368.562 61.3487ZM391.206 63.8985V34.1516H402.34C404.861 34.1516 407.028 34.5624 408.842 35.384C410.655 36.1772 412.043 37.3388 413.006 38.8686C413.998 40.3701 414.494 42.1974 414.494 44.3505C414.494 46.447 413.998 48.2601 413.006 49.79C412.043 51.2915 410.655 52.453 408.842 53.2746C407.028 54.0678 404.861 54.4645 402.34 54.4645H392.948L394.351 53.0196V63.8985H391.206ZM411.519 63.8985L403.87 53.1046H407.269L414.961 63.8985H411.519ZM394.351 53.2746L392.948 51.7873H402.255C405.23 51.7873 407.482 51.1357 409.012 49.8325C410.57 48.5293 411.349 46.702 411.349 44.3505C411.349 41.9708 410.57 40.1293 409.012 38.8261C407.482 37.5229 405.23 36.8713 402.255 36.8713H392.948L394.351 35.384V53.2746Z" fill="#00309E"/>
<path fill-rule="evenodd" clip-rule="evenodd" d="M327.95 120.023C324.001 125.41 316.674 131.902 314.934 136.662C311.675 145.573 319.916 153.466 328.195 152.005C336.867 150.474 336.929 139.945 347.64 141.377C351.61 141.908 354.632 144.285 356.316 147.241C357.291 148.951 357.891 151.027 357.884 153.377C357.878 155.063 356.55 158.803 356.558 158.838C357.308 158.254 357.794 157.514 358.336 156.91C367.174 147.062 376.337 135.654 385.057 125.568C387.482 122.764 389.682 120.124 392.086 117.301C394.426 114.553 396.855 112.18 398.734 108.444C406.518 92.9647 394.596 73.0211 375.801 74.5103C365.276 75.3435 360.604 81.7731 356.354 86.6754L335.151 111.639C332.8 114.388 330.455 117.48 327.95 120.023Z" fill="#55B02F"/>
<path fill-rule="evenodd" clip-rule="evenodd" d="M354.674 161.625C354.678 161.589 357.099 158.445 357.626 156.843C358.361 154.611 358.432 152.451 358.035 150.523C357.349 147.19 355.21 143.996 351.6 142.262C341.859 137.584 338.539 147.577 329.82 146.349C321.495 145.175 316.102 135.119 321.959 127.654L336.204 110.894C336.761 111.799 335.276 110.328 336.204 110.894C335.127 109.141 334.201 107.602 333.179 105.914C329.464 99.786 325.183 90.9496 319.295 86.8546C315.417 84.1587 310.764 82.6132 305.58 82.6219C289.052 82.6488 275.086 101.376 286.655 119.923L312.468 161.714C317.087 169.193 333.128 179.821 349.5 167.373L354.674 161.625Z" fill="#0FA0D7"/>
</svg>
